<svg xmlns="http://www.w3.org/2000/svg" viewBox="0 0 400 500" role="img" aria-label="Academic Research CV template preview">
  <rect width="400" height="500" fill="#FFFFFF"/>
  <text x="200" y="52" font-family="Georgia, serif" font-size="24" fill="#0A0A0B" text-anchor="middle">Dr. Thomas Walsh, Ph.D.</text>
  <text x="200" y="72" font-family="Georgia, serif" font-size="11" fill="#8B8B90" text-anchor="middle" font-style="italic">Department of Computational Linguistics</text>
  <text x="200" y="88" font-family="Georgia, serif" font-size="10" fill="#8B8B90" text-anchor="middle">University of Cambridge  ·  twalsh@cam.ac.uk</text>
  <line x1="32" y1="104" x2="368" y2="104" stroke="#0A0A0B" stroke-width="1"/>
  <line x1="32" y1="108" x2="368" y2="108" stroke="#0A0A0B" stroke-width="0.5"/>
  <text x="200" y="130" font-family="Georgia, serif" font-size="12" fill="#0A0A0B" text-anchor="middle" font-style="italic">Education</text>
  <rect x="32" y="146" width="200" height="5" fill="#0A0A0B"/>
  <rect x="300" y="146" width="68" height="4" fill="#8B8B90"/>
  <rect x="32" y="158" width="240" height="3" fill="#8B8B90"/>
  <rect x="32" y="174" width="180" height="5" fill="#0A0A0B"/>
  <rect x="300" y="174" width="68" height="4" fill="#8B8B90"/>
  <rect x="32" y="186" width="220" height="3" fill="#8B8B90"/>
  <text x="200" y="218" font-family="Georgia, serif" font-size="12" fill="#0A0A0B" text-anchor="middle" font-style="italic">Publications</text>
  <rect x="32" y="234" width="4" height="3" fill="#0A0A0B"/>
  <rect x="42" y="232" width="326" height="3" fill="#8B8B90"/>
  <rect x="42" y="240" width="280" height="3" fill="#8B8B90"/>
  <rect x="32" y="258" width="4" height="3" fill="#0A0A0B"/>
  <rect x="42" y="256" width="326" height="3" fill="#8B8B90"/>
  <rect x="42" y="264" width="300" height="3" fill="#8B8B90"/>
  <rect x="32" y="282" width="4" height="3" fill="#0A0A0B"/>
  <rect x="42" y="280" width="326" height="3" fill="#8B8B90"/>
  <rect x="42" y="288" width="260" height="3" fill="#8B8B90"/>
  <rect x="32" y="306" width="4" height="3" fill="#0A0A0B"/>
  <rect x="42" y="304" width="326" height="3" fill="#8B8B90"/>
  <rect x="42" y="312" width="290" height="3" fill="#8B8B90"/>
  <text x="200" y="344" font-family="Georgia, serif" font-size="12" fill="#0A0A0B" text-anchor="middle" font-style="italic">Research Grants</text>
  <rect x="32" y="360" width="160" height="4" fill="#0A0A0B"/>
  <rect x="300" y="360" width="68" height="4" fill="#8B8B90"/>
  <rect x="32" y="372" width="200" height="3" fill="#8B8B90"/>
  <rect x="32" y="388" width="180" height="4" fill="#0A0A0B"/>
  <rect x="300" y="388" width="68" height="4" fill="#8B8B90"/>
  <rect x="32" y="400" width="180" height="3" fill="#8B8B90"/>
  <text x="200" y="432" font-family="Georgia, serif" font-size="12" fill="#0A0A0B" text-anchor="middle" font-style="italic">Teaching</text>
  <rect x="32" y="448" width="336" height="3" fill="#8B8B90"/>
  <rect x="32" y="458" width="320" height="3" fill="#8B8B90"/>
  <rect x="32" y="468" width="290" height="3" fill="#8B8B90"/>
  <rect x="32" y="478" width="270" height="3" fill="#8B8B90"/>
</svg>
