<svg xmlns="http://www.w3.org/2000/svg" viewBox="0 0 400 500" role="img" aria-label="Classic Graphic resume template preview">
  <rect width="400" height="500" fill="#FFFFFF"/>
  <rect x="0" y="0" width="400" height="110" fill="#0A0A0B"/>
  <text x="32" y="55" font-family="Georgia, serif" font-size="26" fill="#FFFFFF" font-weight="400">Alexandra Johnson</text>
  <text x="32" y="82" font-family="Arial, sans-serif" font-size="11" fill="#B9B9BE" letter-spacing="2">GRAPHIC DESIGNER</text>
  <text x="32" y="100" font-family="Arial, sans-serif" font-size="9" fill="#8B8B90">alex.j@email.com  ·  555.012.3456  ·  New York, NY</text>
  <text x="32" y="145" font-family="Arial, sans-serif" font-size="10" fill="#0A0A0B" font-weight="700" letter-spacing="2">EXPERIENCE</text>
  <line x1="32" y1="154" x2="368" y2="154" stroke="#0A0A0B" stroke-width="1"/>
  <rect x="32" y="168" width="180" height="7" fill="#0A0A0B"/>
  <rect x="32" y="182" width="120" height="5" fill="#8B8B90"/>
  <rect x="32" y="196" width="336" height="3" fill="#D4D4D0"/>
  <rect x="32" y="204" width="320" height="3" fill="#D4D4D0"/>
  <rect x="32" y="212" width="280" height="3" fill="#D4D4D0"/>
  <rect x="32" y="232" width="170" height="7" fill="#0A0A0B"/>
  <rect x="32" y="246" width="110" height="5" fill="#8B8B90"/>
  <rect x="32" y="260" width="336" height="3" fill="#D4D4D0"/>
  <rect x="32" y="268" width="300" height="3" fill="#D4D4D0"/>
  <rect x="32" y="276" width="250" height="3" fill="#D4D4D0"/>
  <text x="32" y="315" font-family="Arial, sans-serif" font-size="10" fill="#0A0A0B" font-weight="700" letter-spacing="2">EDUCATION</text>
  <line x1="32" y1="324" x2="368" y2="324" stroke="#0A0A0B" stroke-width="1"/>
  <rect x="32" y="338" width="200" height="6" fill="#0A0A0B"/>
  <rect x="32" y="352" width="140" height="4" fill="#8B8B90"/>
  <text x="32" y="395" font-family="Arial, sans-serif" font-size="10" fill="#0A0A0B" font-weight="700" letter-spacing="2">SKILLS</text>
  <line x1="32" y1="404" x2="368" y2="404" stroke="#0A0A0B" stroke-width="1"/>
  <rect x="32" y="418" width="70" height="18" rx="2" fill="#F0F0EC"/>
  <rect x="108" y="418" width="80" height="18" rx="2" fill="#F0F0EC"/>
  <rect x="194" y="418" width="60" height="18" rx="2" fill="#F0F0EC"/>
  <rect x="260" y="418" width="75" height="18" rx="2" fill="#F0F0EC"/>
  <rect x="32" y="444" width="90" height="18" rx="2" fill="#F0F0EC"/>
  <rect x="128" y="444" width="65" height="18" rx="2" fill="#F0F0EC"/>
</svg>
