<svg xmlns="http://www.w3.org/2000/svg" viewBox="0 0 400 500" role="img" aria-label="Creative Vibrant resume template preview">
  <rect width="400" height="500" fill="#FFFFFF"/>
  <rect x="0" y="0" width="400" height="140" fill="#FF5C00"/>
  <circle cx="60" cy="70" r="32" fill="#FFFFFF" stroke="#FFFFFF" stroke-width="3"/>
  <circle cx="60" cy="70" r="26" fill="#FFC107"/>
  <text x="110" y="60" font-family="Georgia, serif" font-size="24" fill="#FFFFFF">Mia Torres</text>
  <text x="110" y="82" font-family="Arial, sans-serif" font-size="11" fill="#FFFFFF" font-weight="600" letter-spacing="2">CREATIVE DESIGNER</text>
  <rect x="110" y="96" width="220" height="2" fill="#FFFFFF" opacity="0.6"/>
  <text x="110" y="114" font-family="Arial, sans-serif" font-size="9" fill="#FFFFFF" opacity="0.9">mia@studio.com · @miatorres · Austin, TX</text>
  <text x="24" y="175" font-family="Arial, sans-serif" font-size="10" fill="#FF5C00" font-weight="700" letter-spacing="2">ABOUT</text>
  <rect x="24" y="184" width="30" height="2" fill="#FF5C00"/>
  <rect x="24" y="198" width="352" height="3" fill="#C0C0BC"/>
  <rect x="24" y="206" width="340" height="3" fill="#C0C0BC"/>
  <rect x="24" y="214" width="280" height="3" fill="#C0C0BC"/>
  <text x="24" y="250" font-family="Arial, sans-serif" font-size="10" fill="#FF5C00" font-weight="700" letter-spacing="2">PORTFOLIO</text>
  <rect x="24" y="259" width="30" height="2" fill="#FF5C00"/>
  <rect x="24" y="274" width="108" height="70" rx="6" fill="#FFE3D1"/>
  <circle cx="78" cy="305" r="16" fill="#FF5C00"/>
  <rect x="140" y="274" width="108" height="70" rx="6" fill="#EDE4FF"/>
  <rect x="160" y="295" width="68" height="28" rx="3" fill="#8B5CF6"/>
  <rect x="256" y="274" width="108" height="70" rx="6" fill="#FFF6CC"/>
  <polygon points="310,290 330,328 290,328" fill="#FFC107"/>
  <text x="24" y="385" font-family="Arial, sans-serif" font-size="10" fill="#FF5C00" font-weight="700" letter-spacing="2">EXPERIENCE</text>
  <rect x="24" y="394" width="30" height="2" fill="#FF5C00"/>
  <circle cx="30" cy="414" r="4" fill="#FF5C00"/>
  <rect x="44" y="410" width="140" height="6" fill="#0A0A0B"/>
  <rect x="44" y="422" width="90" height="4" fill="#8B8B90"/>
  <circle cx="30" cy="444" r="4" fill="#8B5CF6"/>
  <rect x="44" y="440" width="130" height="6" fill="#0A0A0B"/>
  <rect x="44" y="452" width="85" height="4" fill="#8B8B90"/>
  <circle cx="30" cy="474" r="4" fill="#FFC107"/>
  <rect x="44" y="470" width="150" height="6" fill="#0A0A0B"/>
  <rect x="44" y="482" width="95" height="4" fill="#8B8B90"/>
</svg>
