<svg xmlns="http://www.w3.org/2000/svg" viewBox="0 0 400 500" role="img" aria-label="Dark Engineer resume template preview">
  <rect width="400" height="500" fill="#F8F8F5"/>
  <rect x="0" y="0" width="140" height="500" fill="#0A0A0B"/>
  <circle cx="70" cy="60" r="28" fill="#1F1F23"/>
  <circle cx="70" cy="60" r="28" fill="none" stroke="#FF5C00" stroke-width="2"/>
  <text x="70" y="110" font-family="Arial, sans-serif" font-size="11" fill="#FFFFFF" font-weight="700" text-anchor="middle">MARCUS LEE</text>
  <text x="70" y="124" font-family="Arial, sans-serif" font-size="8" fill="#8B8B90" text-anchor="middle">Software Engineer</text>
  <text x="20" y="160" font-family="Arial, sans-serif" font-size="8" fill="#FF5C00" letter-spacing="1">CONTACT</text>
  <rect x="20" y="170" width="100" height="3" fill="#8B8B90"/>
  <rect x="20" y="180" width="90" height="3" fill="#8B8B90"/>
  <rect x="20" y="190" width="95" height="3" fill="#8B8B90"/>
  <text x="20" y="220" font-family="Arial, sans-serif" font-size="8" fill="#FF5C00" letter-spacing="1">SKILLS</text>
  <rect x="20" y="230" width="100" height="4" rx="2" fill="#1F1F23"/>
  <rect x="20" y="230" width="85" height="4" rx="2" fill="#FF5C00"/>
  <rect x="20" y="242" width="100" height="4" rx="2" fill="#1F1F23"/>
  <rect x="20" y="242" width="70" height="4" rx="2" fill="#FF5C00"/>
  <rect x="20" y="254" width="100" height="4" rx="2" fill="#1F1F23"/>
  <rect x="20" y="254" width="90" height="4" rx="2" fill="#FF5C00"/>
  <rect x="20" y="266" width="100" height="4" rx="2" fill="#1F1F23"/>
  <rect x="20" y="266" width="55" height="4" rx="2" fill="#FF5C00"/>
  <text x="20" y="300" font-family="Arial, sans-serif" font-size="8" fill="#FF5C00" letter-spacing="1">LANGUAGES</text>
  <rect x="20" y="310" width="90" height="3" fill="#8B8B90"/>
  <rect x="20" y="320" width="80" height="3" fill="#8B8B90"/>
  <rect x="20" y="330" width="70" height="3" fill="#8B8B90"/>
  <text x="160" y="50" font-family="Georgia, serif" font-size="22" fill="#0A0A0B">Experience</text>
  <line x1="160" y1="62" x2="380" y2="62" stroke="#FF5C00" stroke-width="2"/>
  <rect x="160" y="78" width="160" height="7" fill="#0A0A0B"/>
  <rect x="160" y="92" width="100" height="5" fill="#8B8B90"/>
  <rect x="160" y="106" width="210" height="3" fill="#C0C0BC"/>
  <rect x="160" y="114" width="200" height="3" fill="#C0C0BC"/>
  <rect x="160" y="122" width="180" height="3" fill="#C0C0BC"/>
  <rect x="160" y="144" width="150" height="7" fill="#0A0A0B"/>
  <rect x="160" y="158" width="95" height="5" fill="#8B8B90"/>
  <rect x="160" y="172" width="210" height="3" fill="#C0C0BC"/>
  <rect x="160" y="180" width="200" height="3" fill="#C0C0BC"/>
  <rect x="160" y="188" width="170" height="3" fill="#C0C0BC"/>
  <text x="160" y="230" font-family="Georgia, serif" font-size="22" fill="#0A0A0B">Projects</text>
  <line x1="160" y1="242" x2="380" y2="242" stroke="#FF5C00" stroke-width="2"/>
  <rect x="160" y="258" width="140" height="6" fill="#0A0A0B"/>
  <rect x="160" y="272" width="210" height="3" fill="#C0C0BC"/>
  <rect x="160" y="280" width="190" height="3" fill="#C0C0BC"/>
  <rect x="160" y="300" width="130" height="6" fill="#0A0A0B"/>
  <rect x="160" y="314" width="210" height="3" fill="#C0C0BC"/>
  <rect x="160" y="322" width="175" height="3" fill="#C0C0BC"/>
  <text x="160" y="360" font-family="Georgia, serif" font-size="22" fill="#0A0A0B">Education</text>
  <line x1="160" y1="372" x2="380" y2="372" stroke="#FF5C00" stroke-width="2"/>
  <rect x="160" y="388" width="160" height="6" fill="#0A0A0B"/>
  <rect x="160" y="402" width="120" height="4" fill="#8B8B90"/>
</svg>
