<svg xmlns="http://www.w3.org/2000/svg" viewBox="0 0 400 500" role="img" aria-label="Minimal Clean Pro resume template preview">
  <rect width="400" height="500" fill="#FFFFFF"/>
  <text x="200" y="80" font-family="Georgia, serif" font-size="28" fill="#0A0A0B" text-anchor="middle" font-weight="300">Aria Lee</text>
  <text x="200" y="102" font-family="Arial, sans-serif" font-size="10" fill="#8B8B90" text-anchor="middle" letter-spacing="4">BUSINESS STRATEGIST</text>
  <line x1="170" y1="118" x2="230" y2="118" stroke="#0A0A0B" stroke-width="1"/>
  <text x="200" y="140" font-family="Arial, sans-serif" font-size="9" fill="#8B8B90" text-anchor="middle">aria.lee@email.com   ·   (555) 234-5678   ·   Chicago, IL</text>
  <text x="32" y="185" font-family="Arial, sans-serif" font-size="10" fill="#0A0A0B" letter-spacing="3">EXPERIENCE</text>
  <rect x="32" y="204" width="180" height="6" fill="#0A0A0B"/>
  <rect x="310" y="204" width="58" height="5" fill="#8B8B90"/>
  <rect x="32" y="218" width="120" height="4" fill="#8B8B90"/>
  <rect x="32" y="234" width="336" height="3" fill="#D4D4D0"/>
  <rect x="32" y="242" width="320" height="3" fill="#D4D4D0"/>
  <rect x="32" y="250" width="290" height="3" fill="#D4D4D0"/>
  <rect x="32" y="278" width="170" height="6" fill="#0A0A0B"/>
  <rect x="310" y="278" width="58" height="5" fill="#8B8B90"/>
  <rect x="32" y="292" width="110" height="4" fill="#8B8B90"/>
  <rect x="32" y="308" width="336" height="3" fill="#D4D4D0"/>
  <rect x="32" y="316" width="310" height="3" fill="#D4D4D0"/>
  <rect x="32" y="324" width="280" height="3" fill="#D4D4D0"/>
  <text x="32" y="368" font-family="Arial, sans-serif" font-size="10" fill="#0A0A0B" letter-spacing="3">EDUCATION</text>
  <rect x="32" y="386" width="200" height="6" fill="#0A0A0B"/>
  <rect x="310" y="386" width="58" height="5" fill="#8B8B90"/>
  <rect x="32" y="400" width="130" height="4" fill="#8B8B90"/>
  <text x="32" y="440" font-family="Arial, sans-serif" font-size="10" fill="#0A0A0B" letter-spacing="3">SKILLS</text>
  <rect x="32" y="458" width="200" height="3" fill="#8B8B90"/>
  <rect x="32" y="468" width="220" height="3" fill="#8B8B90"/>
  <rect x="32" y="478" width="180" height="3" fill="#8B8B90"/>
</svg>
