<svg xmlns="http://www.w3.org/2000/svg" viewBox="0 0 400 500" role="img" aria-label="Modern Teal Minimal resume template preview">
  <rect width="400" height="500" fill="#F8F8F5"/>
  <rect x="0" y="0" width="400" height="8" fill="#14B8A6"/>
  <text x="32" y="58" font-family="Georgia, serif" font-size="26" fill="#0A0A0B">Jordan Reyes</text>
  <text x="32" y="80" font-family="Arial, sans-serif" font-size="10" fill="#14B8A6" letter-spacing="3" font-weight="600">OPERATIONS MANAGER</text>
  <text x="32" y="98" font-family="Arial, sans-serif" font-size="9" fill="#8B8B90">j.reyes@email.com  ·  (555) 678-1234  ·  Denver, CO  ·  linkedin.com/in/jreyes</text>
  <line x1="32" y1="116" x2="368" y2="116" stroke="#E0E0DC" stroke-width="1"/>
  <rect x="32" y="140" width="4" height="14" fill="#14B8A6"/>
  <text x="46" y="152" font-family="Arial, sans-serif" font-size="11" fill="#0A0A0B" font-weight="700" letter-spacing="2">SUMMARY</text>
  <rect x="32" y="168" width="336" height="3" fill="#C0C0BC"/>
  <rect x="32" y="176" width="320" height="3" fill="#C0C0BC"/>
  <rect x="32" y="184" width="280" height="3" fill="#C0C0BC"/>
  <rect x="32" y="214" width="4" height="14" fill="#14B8A6"/>
  <text x="46" y="226" font-family="Arial, sans-serif" font-size="11" fill="#0A0A0B" font-weight="700" letter-spacing="2">EXPERIENCE</text>
  <rect x="32" y="242" width="170" height="6" fill="#0A0A0B"/>
  <rect x="310" y="242" width="58" height="4" fill="#14B8A6"/>
  <rect x="32" y="256" width="110" height="4" fill="#8B8B90"/>
  <rect x="32" y="270" width="336" height="3" fill="#C0C0BC"/>
  <rect x="32" y="278" width="310" height="3" fill="#C0C0BC"/>
  <rect x="32" y="286" width="270" height="3" fill="#C0C0BC"/>
  <rect x="32" y="304" width="160" height="6" fill="#0A0A0B"/>
  <rect x="310" y="304" width="58" height="4" fill="#14B8A6"/>
  <rect x="32" y="318" width="100" height="4" fill="#8B8B90"/>
  <rect x="32" y="332" width="336" height="3" fill="#C0C0BC"/>
  <rect x="32" y="340" width="300" height="3" fill="#C0C0BC"/>
  <rect x="32" y="348" width="260" height="3" fill="#C0C0BC"/>
  <rect x="32" y="378" width="4" height="14" fill="#14B8A6"/>
  <text x="46" y="390" font-family="Arial, sans-serif" font-size="11" fill="#0A0A0B" font-weight="700" letter-spacing="2">SKILLS</text>
  <rect x="32" y="408" width="76" height="20" rx="10" fill="#FFFFFF" stroke="#14B8A6" stroke-width="1"/>
  <rect x="114" y="408" width="90" height="20" rx="10" fill="#FFFFFF" stroke="#14B8A6" stroke-width="1"/>
  <rect x="210" y="408" width="70" height="20" rx="10" fill="#FFFFFF" stroke="#14B8A6" stroke-width="1"/>
  <rect x="286" y="408" width="82" height="20" rx="10" fill="#FFFFFF" stroke="#14B8A6" stroke-width="1"/>
  <rect x="32" y="436" width="100" height="20" rx="10" fill="#FFFFFF" stroke="#14B8A6" stroke-width="1"/>
  <rect x="138" y="436" width="78" height="20" rx="10" fill="#FFFFFF" stroke="#14B8A6" stroke-width="1"/>
  <rect x="222" y="436" width="94" height="20" rx="10" fill="#FFFFFF" stroke="#14B8A6" stroke-width="1"/>
</svg>
