<svg xmlns="http://www.w3.org/2000/svg" viewBox="0 0 1200 630" width="1200" height="630">
  <defs>
    <linearGradient id="bg" x1="0" y1="0" x2="1" y2="1">
      <stop offset="0" stop-color="#0A0A0B"/>
      <stop offset="0.7" stop-color="#111113"/>
      <stop offset="1" stop-color="#1a1012"/>
    </linearGradient>
  </defs>
  <rect width="1200" height="630" fill="url(#bg)"/>
  <g transform="translate(80,80)">
    <rect x="0" y="0" width="72" height="72" rx="16" fill="#0A0A0B" stroke="#FF5C00" stroke-width="2"/>
    <path d="M22 18h28l14 14v36a4 4 0 0 1-4 4H22a4 4 0 0 1-4-4V22a4 4 0 0 1 4-4z" fill="none" stroke="#FF5C00" stroke-width="3" stroke-linejoin="round" transform="translate(0,0)"/>
    <path d="M50 18v14h14" fill="none" stroke="#FF5C00" stroke-width="3" stroke-linejoin="round"/>
    <text x="96" y="50" font-family="Georgia, serif" font-size="34" fill="#FFFFFF">ResumeForge</text>
  </g>
  <text x="80" y="320" font-family="Georgia, serif" font-size="78" fill="#FFFFFF">Stand out with a resume</text>
  <text x="80" y="410" font-family="Georgia, serif" font-size="78" fill="#FFFFFF">that gets you hired.</text>
  <text x="80" y="490" font-family="Inter, system-ui, sans-serif" font-size="28" fill="#8B8B90">ATS-optimized templates · AI resume optimizer · Instant PDF &amp; DOCX</text>
  <g transform="translate(80,540)">
    <rect x="0" y="0" width="180" height="48" rx="8" fill="#FF5C00"/>
    <text x="90" y="31" text-anchor="middle" font-family="Inter, system-ui, sans-serif" font-size="17" font-weight="600" fill="#FFFFFF">Browse Templates</text>
  </g>
  <text x="280" y="572" font-family="Inter, system-ui, sans-serif" font-size="18" fill="#6B6B70">resumeforge.app</text>
</svg>
